<svg xmlns="http://www.w3.org/2000/svg" id="Wiki" version="1.1" viewBox="0 0 150 150"><defs><style>.st0{fill:#fff}</style></defs><g id="V2"><path d="M72 56c-4-3-9.4-5.2-15.3-6.4-8.3-1.7-17.4-1.5-26.7.4-1.2.2-2 1.3-2 2.5v42c0 .8.3 1.5.9 2 .6.5 1.4.7 2.1.5 8.6-1.7 17-1.9 24.5-.3 5.9 1.2 11 3.3 14.4 6.3.6.5 1.4.8 2.1.8V56Z" class="st0"/><path d="M78 56c4-3 9.4-5.2 15.3-6.4 8.3-1.7 17.4-1.5 26.7.4 1.2.2 2 1.3 2 2.5v42c0 .8-.3 1.5-.9 2-.6.5-1.4.7-2.1.5-8.6-1.7-17-1.9-24.5-.3-5.9 1.2-11 3.3-14.4 6.3-.6.5-1.4.8-2.1.8V56Z" class="st0"/><path d="M75 54.5v49.9" style="fill:none;stroke:#fff;stroke-width:3;stroke-linecap:round"/></g></svg>
